<svg xmlns="http://www.w3.org/2000/svg" xmlns:xlink="http://www.w3.org/1999/xlink" viewBox="0 0 147.4 147.37"><defs><style>.cls-1{fill:url(#linear-gradient);}.cls-2{fill:#333;}</style><linearGradient id="linear-gradient" x1="25.49" y1="131.03" x2="119.96" y2="18.69" gradientUnits="userSpaceOnUse"><stop offset="0" stop-color="#3ddea7"/><stop offset="0" stop-color="#3cdba5"/><stop offset="0.07" stop-color="#2ca27a"/><stop offset="0.14" stop-color="#1f7054"/><stop offset="0.21" stop-color="#144836"/><stop offset="0.27" stop-color="#0b291e"/><stop offset="0.34" stop-color="#05120e"/><stop offset="0.4" stop-color="#010503"/><stop offset="0.45"/><stop offset="0.94" stop-opacity="0.28"/><stop offset="1" stop-opacity="0"/></linearGradient></defs><title>Asset 2</title><g id="Layer_2" data-name="Layer 2"><g id="Layer_2-2" data-name="Layer 2"><path class="cls-1" d="M125.78,21.58l-3.84-3.46c-.63-.55-1.29-1.23-2.12-1.85l-2.73-2c-1-.69-2-1.51-3.19-2.26L110.07,9.8A71,71,0,0,0,89,1.92,72.54,72.54,0,0,0,60,1.92,74.27,74.27,0,0,0,29.09,16.58c-1.22.91-2.31,2-3.46,3.07L23.9,21.22,23,22c-.23.23-.51.57-.77.85a70.05,70.05,0,0,0-6.08,7.34A70.28,70.28,0,0,0,6.91,47.3c-.53,1.57-1.07,3.14-1.6,4.73s-.81,3.25-1.22,4.88l-.57,2.45c-.14.83-.24,1.67-.36,2.51-.2,1.68-.5,3.36-.62,5.05A78.88,78.88,0,0,0,3.76,87.44a77,77,0,0,0,7.12,19.62A79.32,79.32,0,0,0,23.45,123.9l3.93,3.56a25.45,25.45,0,0,0,2,1.73l2.1,1.56,2.1,1.55,1,.78,1.12.67,4.52,2.69a76.7,76.7,0,0,0,19.63,7.13,78.42,78.42,0,0,0,20.52,1.22c1.69-.12,3.37-.43,5-.63.83-.12,1.67-.21,2.5-.35l2.46-.57c1.63-.42,3.29-.7,4.88-1.22l4.72-1.61a70.2,70.2,0,0,0,17.13-9.28,71.32,71.32,0,0,0,7.3-6.06c.28-.25.61-.53.84-.75l.8-.87,1.59-1.74c1-1.15,2.18-2.24,3.08-3.46a74.26,74.26,0,0,0,14.65-30.83,72.5,72.5,0,0,0,0-29.05,70.8,70.8,0,0,0-7.88-21.06l-2.25-3.84c-.75-1.15-1.57-2.19-2.27-3.19l-2-2.73c-.61-.83-1.29-1.48-1.84-2.12Zm0,0,3.46,3.81c.55.64,1.24,1.29,1.86,2.11l2,2.74c.71,1,1.54,2,2.31,3.17l2.28,3.83a70.86,70.86,0,0,1,8.08,21.06,73.73,73.73,0,0,1-14,60.78c-.91,1.27-2,2.34-3,3.53l-1.56,1.74-.79.88a9.81,9.81,0,0,1-.89.84,71.06,71.06,0,0,1-7.34,6.32,72,72,0,0,1-17.38,9.81L96,143.93c-1.62.58-3.33.89-5,1.34l-2.53.64c-.85.16-1.73.28-2.58.41-1.73.24-3.46.58-5.19.74a74.3,74.3,0,0,1-41.56-8.33L34.41,136l-1.15-.7-1.12-.81-2.22-1.62-2.3-1.6a26.72,26.72,0,0,1-2.05-1.73l-4-3.65A81.47,81.47,0,0,1,8.61,108.31,79.5,79.5,0,0,1,1.36,88,79.38,79.38,0,0,1,.27,66.74c.16-1.73.5-3.46.74-5.19.14-.87.26-1.73.41-2.58l.64-2.52c.46-1.67.78-3.37,1.34-5l1.73-4.83A76.08,76.08,0,0,1,21.26,21.94c.28-.3.5-.58.83-.89l.88-.82,1.78-1.57c1.2-1,2.3-2.14,3.56-3.05a73.7,73.7,0,0,1,60.76-14,70.92,70.92,0,0,1,21.07,8.08c1.35.8,2.62,1.55,3.83,2.31s2.18,1.58,3.18,2.3l2.71,2c.82.62,1.47,1.31,2.11,1.86Z"/><path class="cls-2" d="M54,94.55a2.89,2.89,0,0,1-2.74-2.11,14.65,14.65,0,0,1-.85-5.37,50.35,50.35,0,0,1,1.1-8.94q-2.13-.22-7.22-1.07-8.44,13.2-14,18.33-4.8,4.53-10,4.54a8.18,8.18,0,0,1-5.62-2.08q-2.32-2.07-2.33-6.14a3.22,3.22,0,0,1,.3-1.41c.2-.44.4-.55.61-.35a3,3,0,0,1,.3,1.76,4.75,4.75,0,0,0,1.61,3.92,6.07,6.07,0,0,0,3.92,1.3q5,0,9.8-4.1T42.05,76.75a99,99,0,0,0-11.77-1.38c-5.15,0-8.32,2.12-9.54,6.37a5.85,5.85,0,0,0-.24,1.57,3.53,3.53,0,0,0,.24,1.3,1.2,1.2,0,0,1,.1.93.49.49,0,0,1-.5.31.84.84,0,0,1-.61-.5,6.81,6.81,0,0,1-.67-2.84c0-3.16.46-5.52,1.36-7a6.23,6.23,0,0,1,3.19-2.88,15.63,15.63,0,0,1,5.1-.77q2.91,0,14.7,2.92,3.27-4.77,10-15.31T60,48.75h.06a1.33,1.33,0,0,1,.3-.23,5.29,5.29,0,0,1,3.16-1.08.59.59,0,0,1,.61.59v.19a.7.7,0,0,1-.06.19,1.36,1.36,0,0,0-.13.3c0,.13-.08.25-.12.35a121.67,121.67,0,0,0-9,27.46l-.18.54,1.5.07a12.45,12.45,0,0,0,1.73.08,5.7,5.7,0,0,0,2.64-.73,3.75,3.75,0,0,0,1.79-1.57c.27-.56.5-.69.7-.39a1,1,0,0,1,.06,1,4.14,4.14,0,0,1-2.37,2.22,6.09,6.09,0,0,1-2.88.77H56l-1.63-.08a64.86,64.86,0,0,0-1.15,10.62c0,2.64.56,4,1.69,4s2.8-1.1,5.11-3.3a38.55,38.55,0,0,0,6.5-8.51.33.33,0,0,1,.5-.16c.2.1.3.23.3.38a1.9,1.9,0,0,1-.09.58,10.18,10.18,0,0,1-.94,1.72A44.16,44.16,0,0,1,60,91.88,8.26,8.26,0,0,1,54,94.55ZM57.34,56l.15-.43q.09-.27.15-.42-7.59,13.11-12.2,20.23l6.37,1.34Q54.09,66.14,57.34,56Z"/><path class="cls-2" d="M76.15,86.42q-5.46,13-10.31,13-3.11,0-3.1-4A12.21,12.21,0,0,1,64.2,90.1,95.1,95.1,0,0,1,71.94,78q5.24-7.18,8.89-11.38l2.31-9.9C81.11,59.15,69.38,79.5,66,84.06c-.28.37-7.84,8.75-7.86,8.4a.62.62,0,0,1,.5-.69l.24-.08c1.74-.2,20-33.31,21.82-35.41a21.25,21.25,0,0,0,4.2-7.22c.16-.64.87-1,2.13-1s1.86.34,1.82,1l-4.22,13.1q8.26-8.85,11.85-9h.85q4.8,0,6.61,4a18.39,18.39,0,0,1,1.58,7.9q0,6.75-3.27,19.34a12,12,0,0,0-.46,2.26s.17-.13.33-.46.42-.83.76-1.5,1.16-2.35,2.46-5.06a154.9,154.9,0,0,1,14.21-24.71c1.58-2.1,3.16-3.16,4.73-3.16a2.34,2.34,0,0,1,2.13,1.23,5.15,5.15,0,0,1,.73,2.68,23,23,0,0,1-.5,4.07q-.51,2.61-3.13,10.89-3.23,10.13-3.22,16.57,0,5,2.19,5c1,0,2.44-.84,4.19-2.53a45.83,45.83,0,0,0,6.43-8.35c.2-.36.39-.44.58-.24a.88.88,0,0,1,.27.5.49.49,0,0,1-.12.34,36.21,36.21,0,0,1-3.64,5.53q-4.07,5.44-6.56,6.45a6,6,0,0,1-2.37.53q-4-.08-4-7.28A35.49,35.49,0,0,1,118,79.8c.48-2.36.88-4.17,1.18-5.45s.7-2.77,1.19-4.49.89-3,1.21-4q1.57-5,1.94-6.21a7.85,7.85,0,0,0,.37-2.11,1.68,1.68,0,0,0-.37-1.23,1.36,1.36,0,0,0-1-.34c-.4,0-1,.45-1.88,1.37q-4.68,5.05-10.53,16a159.11,159.11,0,0,0-8.25,17.14c-.32.86-.65,1.3-1,1.3s-.67-.37-1-1.11a4.56,4.56,0,0,1-.54-1.62,2.25,2.25,0,0,1,.06-.63,60.81,60.81,0,0,0,2.28-10.82,84.56,84.56,0,0,0,.7-9.43q0-13-4.44-13-4.12,0-15,12.59c-.36,1.32-1.15,3.73-2.36,7.2Q78.11,81.82,76.15,86.42ZM66,96.78q3.77,0,9.22-13.28a122.46,122.46,0,0,0,4.38-12q-3.23,3.83-7.11,9.39T67,89.26c-1.42,2.4-2.12,4.25-2.12,5.56s.36,2,1.13,2Z"/></g></g></svg>