<?xml version="1.0" standalone="no"?>
<!DOCTYPE svg PUBLIC "-//W3C//DTD SVG 20010904//EN"
 "http://www.w3.org/TR/2001/REC-SVG-20010904/DTD/svg10.dtd">
<svg version="1.0" xmlns="http://www.w3.org/2000/svg"
 width="512.000000pt" height="512.000000pt" viewBox="0 0 512.000000 512.000000"
 preserveAspectRatio="xMidYMid meet">
<metadata>
Created by potrace 1.11, written by Peter Selinger 2001-2013
</metadata>
<g transform="translate(0.000000,512.000000) scale(0.100000,-0.100000)"
fill="#000000" stroke="none">
<path d="M2406 5108 c5 -8 80 -6 88 3 3 2 -17 4 -44 4 -26 0 -46 -3 -44 -7z"/>
<path d="M2515 5110 c-3 -5 -1 -10 4 -10 6 0 11 5 11 10 0 6 -2 10 -4 10 -3 0
-8 -4 -11 -10z"/>
<path d="M2272 5098 c-9 -4 13 -6 50 -5 38 1 68 5 68 10 0 8 -93 5 -118 -5z"/>
<path d="M2230 5090 c0 -5 5 -10 10 -10 6 0 10 5 10 10 0 6 -4 10 -10 10 -5 0
-10 -4 -10 -10z"/>
<path d="M2127 5078 c-5 -3 -19 -5 -29 -3 -10 2 -18 1 -18 -3 0 -4 -8 -8 -17
-9 -46 -2 -73 -8 -73 -15 0 -4 -7 -5 -15 -2 -8 4 -15 2 -15 -3 0 -5 -8 -10
-17 -10 -49 1 -74 -4 -69 -12 4 -5 -4 -7 -16 -3 -16 4 -19 2 -13 -8 5 -9 4
-11 -3 -6 -12 7 -90 -12 -107 -26 -5 -4 -17 -8 -26 -8 -17 0 -110 -38 -119
-49 -3 -3 -15 -7 -27 -8 -24 -3 -264 -119 -273 -132 -3 -5 -15 -11 -27 -15
-13 -4 -23 -12 -23 -17 0 -5 -6 -9 -14 -9 -21 0 -190 -119 -299 -210 -207
-174 -370 -358 -520 -585 -65 -99 -203 -370 -235 -462 -11 -32 -30 -83 -41
-114 -25 -70 -88 -319 -95 -379 -4 -25 -8 -58 -11 -75 -25 -146 -28 -514 -6
-670 6 -44 14 -96 17 -115 9 -68 15 -93 49 -218 99 -367 252 -669 487 -965
222 -278 532 -523 875 -690 225 -110 543 -206 768 -232 33 -4 74 -9 90 -12 60
-9 422 -10 490 -2 374 46 609 115 911 264 129 64 320 180 389 237 11 9 49 40
85 68 126 100 316 295 417 430 99 131 147 208 250 400 48 89 133 302 133 333
0 4 6 20 14 35 13 26 53 168 61 217 2 11 6 31 10 45 3 14 8 39 10 55 2 17 9
54 15 84 5 29 13 97 17 150 11 156 7 485 -6 477 -3 -3 -4 -42 -1 -88 8 -113 0
-357 -13 -433 -3 -16 -8 -52 -12 -80 -3 -27 -23 -117 -43 -200 -20 -82 -36
-156 -35 -162 0 -7 -3 -13 -7 -13 -5 0 -18 -30 -31 -67 -12 -38 -26 -74 -32
-80 -5 -7 -7 -13 -4 -13 7 0 -67 -162 -116 -255 -102 -192 -233 -376 -381
-533 -86 -93 -85 -91 -160 -157 -38 -33 -74 -65 -80 -70 -64 -60 -286 -210
-400 -269 -320 -168 -625 -259 -981 -293 -129 -13 -430 -6 -535 11 -14 2 -45
7 -70 10 -93 13 -117 18 -195 37 -450 112 -844 332 -1172 656 -124 122 -263
281 -263 302 0 5 -4 11 -8 13 -7 2 -78 106 -139 203 -36 57 -126 244 -166 345
-89 226 -144 458 -164 691 -12 131 -8 436 5 519 7 41 15 95 17 119 23 224 189
672 335 906 188 300 453 578 725 760 160 107 465 267 526 274 5 0 7 5 4 11 -3
5 0 7 9 4 8 -3 21 -2 28 2 7 5 16 9 21 10 4 1 9 3 12 4 6 3 4 2 68 20 26 7 47
15 47 19 0 3 17 7 37 8 20 1 39 5 42 10 3 4 13 9 21 10 8 1 26 4 40 7 106 24
138 30 163 30 15 0 27 4 27 8 0 9 -77 6 -93 -4z"/>
<path d="M2135 3456 c-39 -17 -48 -29 -140 -176 -43 -69 -88 -141 -100 -160
-13 -19 -63 -98 -112 -175 -49 -77 -131 -203 -182 -281 l-92 -141 -139 33
c-211 51 -340 72 -407 68 -139 -8 -214 -49 -258 -137 -31 -65 -37 -96 -39
-202 -1 -89 17 -148 43 -143 10 2 15 12 13 23 -2 11 -4 43 -4 70 -2 95 77 202
178 241 53 20 202 26 319 12 89 -11 158 -20 175 -24 8 -1 25 -3 38 -3 39 -2
34 -11 -107 -201 -31 -41 -58 -77 -61 -80 -3 -3 -18 -22 -34 -44 -67 -90 -193
-219 -266 -273 -233 -173 -490 -131 -490 79 0 53 -13 69 -30 37 -15 -27 -7
-132 14 -180 18 -44 68 -94 121 -122 57 -31 207 -30 283 1 161 67 339 253 570
597 48 72 90 132 95 133 4 2 7 10 7 18 0 17 19 17 91 4 30 -6 77 -13 104 -16
28 -4 53 -8 56 -10 3 -2 0 -38 -7 -81 -34 -200 -27 -353 19 -435 34 -61 107
-70 201 -24 105 52 255 244 480 616 292 484 397 652 404 646 2 -3 -13 -76 -34
-163 l-38 -158 -86 -107 c-179 -219 -410 -550 -480 -688 -93 -184 -75 -340 39
-340 55 0 84 13 136 61 114 105 240 369 405 846 l66 192 69 78 c198 221 362
352 443 353 72 0 118 -68 142 -210 19 -111 16 -469 -5 -532 -2 -7 -6 -39 -9
-71 -7 -69 -9 -78 -48 -239 -31 -126 -31 -128 -13 -167 33 -75 54 -61 105 69
32 81 204 428 285 575 165 300 348 545 407 545 30 0 43 -26 39 -73 -1 -15 -27
-104 -57 -198 -78 -244 -129 -446 -159 -629 -12 -69 -13 -226 -3 -283 24 -129
109 -175 223 -121 72 34 217 198 313 356 32 53 38 69 28 77 -10 8 -25 -6 -64
-65 -130 -193 -268 -322 -334 -312 -11 2 -30 16 -42 31 -19 25 -21 42 -21 145
0 186 21 292 120 612 101 328 124 443 103 527 -19 77 -84 107 -154 70 -104
-55 -322 -400 -570 -902 -79 -159 -144 -285 -144 -280 0 6 18 86 40 179 22 93
42 183 45 200 3 17 7 42 10 56 5 27 10 60 21 133 10 75 11 236 2 292 -13 74
-55 178 -86 212 -58 66 -169 94 -259 68 -69 -21 -159 -90 -310 -238 l-62 -61
28 85 c16 46 50 149 75 229 44 135 46 146 29 157 -33 25 -123 10 -123 -20 0
-25 -81 -170 -128 -230 -48 -61 -107 -158 -332 -547 -137 -237 -283 -481 -320
-535 -34 -49 -132 -146 -183 -181 -21 -14 -53 -28 -72 -31 -30 -5 -35 -2 -50
27 -21 40 -21 237 0 336 3 11 7 43 10 70 4 27 10 53 14 57 4 4 46 9 92 11 96
3 143 21 188 72 20 22 28 40 24 54 -5 20 -8 19 -43 -17 -45 -47 -99 -65 -185
-61 l-64 3 5 28 c13 74 87 346 129 475 44 136 112 309 170 435 14 33 24 65 21
73 -7 17 -51 17 -91 0z m-186 -417 c-41 -136 -139 -517 -139 -541 -1 -41 -16
-43 -150 -13 -14 3 -36 7 -49 10 -13 2 -25 6 -27 7 -1 2 20 39 48 83 74 115
316 521 335 561 9 18 18 32 20 31 1 -2 -15 -64 -38 -138z m775 -530 c-91 -262
-216 -539 -289 -638 -96 -131 -180 -150 -178 -42 2 70 47 160 179 356 112 167
313 439 320 432 3 -2 -12 -51 -32 -108z"/>
<path d="M5090 2861 c0 -6 4 -13 10 -16 6 -3 7 1 4 9 -7 18 -14 21 -14 7z"/>
</g>
</svg>
